<mxfile host="app.diagrams.net" modified="2023-07-06T07:49:37.072Z" agent="Mozilla/5.0 (X11; Linux x86_64) AppleWebKit/537.36 (KHTML, like Gecko) Chrome/114.0.0.0 Safari/537.36" version="21.6.1" etag="GCd7_jR5n5LPhfhDPPGg" type="github">
  <diagram name="Page-1" id="GkNhZaPV_6VtxY-AVE6r">
    <mxGraphModel>
      <root>
        <mxCell id="0" />
        <mxCell id="1" parent="0" />
      </root>
    </mxGraphModel>
  </diagram>
</mxfile>
